<svg version="1.1" xmlns="http://www.w3.org/2000/svg" xmlns:xlink="http://www.w3.org/1999/xlink" width="320.79566" height="206.5" viewBox="0,0,320.79566,206.5"><g transform="translate(-44.74999,-50.25)"><g data-paper-data="{&quot;isPaintingLayer&quot;:true}" fill-rule="nonzero" stroke="#f3bc00" stroke-width="7.5" stroke-linecap="butt" stroke-linejoin="miter" stroke-miterlimit="10" stroke-dasharray="" stroke-dashoffset="0" style="mix-blend-mode: normal"><path d="M144.79565,204c0,27.06195 -21.55651,49 -48.14783,49c-26.59131,0 -48.14783,-21.93805 -48.14783,-49c0,-27.06195 21.55651,-49 48.14783,-49c26.59131,0 48.14783,21.93805 48.14783,49z" fill="#98fffe"/><path d="M247.79565,103c0,27.06196 -21.55651,49 -48.14783,49c-26.59131,0 -48.14783,-21.93804 -48.14783,-49c0,-27.06196 21.55651,-49 48.14783,-49c26.59131,0 48.14783,21.93804 48.14783,49z" fill="#9affff"/><path d="M361.79565,178c0,27.06196 -21.55651,49 -48.14783,49c-26.59131,0 -48.14783,-21.93804 -48.14783,-49c0,-27.06196 21.55651,-49 48.14783,-49c26.59131,0 48.14783,21.93804 48.14783,49z" fill="#98ffff"/></g></g></svg>